<svg xmlns:dc="http://purl.org/dc/elements/1.1/" xmlns:cc="http://creativecommons.org/ns#" xmlns:rdf="http://www.w3.org/1999/02/22-rdf-syntax-ns#" xmlns:svg="http://www.w3.org/2000/svg" xmlns="http://www.w3.org/2000/svg" xmlns:sodipodi="http://sodipodi.sourceforge.net/DTD/sodipodi-0.dtd" xmlns:inkscape="http://www.inkscape.org/namespaces/inkscape" id="svg10728" xml:space="preserve" width="666.66669" height="666.66669" viewBox="0 0 666.66669 666.66669" sodipodi:docname="clouds-vector-pack-publicdomainvectors.org.svg" inkscape:version="0.92.4 (5da689c313, 2019-01-14)"><metadata></metadata><defs id="defs10732"><clipPath clipPathUnits="userSpaceOnUse" id="clipPath10744"><path d="M 0,500 H 500 V 0 H 0 Z" id="path10742" inkscape:connector-curvature="0"></path></clipPath></defs><g id="g10736" inkscape:groupmode="layer" inkscape:label="clouds-vector-pack-publicdomainvectors.org" transform="matrix(1.3333333,0,0,-1.3333333,0,666.66667)"><g id="g10738"><g id="g10740" clip-path="url(#clipPath10744)"><path d="M 500,0 H 0 v 500 h 500 z" style="fill:#29abe2;fill-opacity:1;fill-rule:nonzero;stroke:none" id="path10746" inkscape:connector-curvature="0"></path><path d="m 291.106,367.463 h -87.495 c -12.425,0 -22.499,10.074 -22.499,22.499 0,12.426 10.074,22.499 22.499,22.499 h 87.495 c 12.426,0 22.499,-10.073 22.499,-22.499 0,-12.425 -10.073,-22.499 -22.499,-22.499" style="fill:#ffffff;fill-opacity:1;fill-rule:nonzero;stroke:none" id="path10748" inkscape:connector-curvature="0"></path><path d="m 256.018,416.71 c 0,-14.772 -11.976,-26.748 -26.748,-26.748 -14.773,0 -26.749,11.976 -26.749,26.748 0,14.773 11.976,26.748 26.749,26.748 14.772,0 26.748,-11.975 26.748,-26.748" style="fill:#ffffff;fill-opacity:1;fill-rule:nonzero;stroke:none" id="path10750" inkscape:connector-curvature="0"></path><path d="m 294.766,406.71 c 0,-15.877 -12.871,-28.748 -28.748,-28.748 -15.877,0 -28.748,12.871 -28.748,28.748 0,15.878 12.871,28.748 28.748,28.748 15.877,0 28.748,-12.87 28.748,-28.748" style="fill:#ffffff;fill-opacity:1;fill-rule:nonzero;stroke:none" id="path10752" inkscape:connector-curvature="0"></path><path d="m 454.106,367.463 h -87.495 c -12.425,0 -22.499,10.074 -22.499,22.499 0,12.426 10.074,22.499 22.499,22.499 h 87.495 c 12.426,0 22.499,-10.073 22.499,-22.499 0,-12.425 -10.073,-22.499 -22.499,-22.499" style="fill:#ffffff;fill-opacity:1;fill-rule:nonzero;stroke:none" id="path10754" inkscape:connector-curvature="0"></path><path d="m 419.018,416.71 c 0,-14.772 -11.976,-26.748 -26.748,-26.748 -14.773,0 -26.749,11.976 -26.749,26.748 0,14.773 11.976,26.748 26.749,26.748 14.772,0 26.748,-11.975 26.748,-26.748" style="fill:#ffffff;fill-opacity:1;fill-rule:nonzero;stroke:none" id="path10756" inkscape:connector-curvature="0"></path><path d="m 457.766,406.71 c 0,-15.877 -12.871,-28.748 -28.748,-28.748 -15.877,0 -28.748,12.871 -28.748,28.748 0,15.878 12.871,28.748 28.748,28.748 15.877,0 28.748,-12.87 28.748,-28.748" style="fill:#ffffff;fill-opacity:1;fill-rule:nonzero;stroke:none" id="path10758" inkscape:connector-curvature="0"></path><path d="m 414.018,368.714 c 0,-11.735 -9.513,-21.248 -21.248,-21.248 -11.736,0 -21.249,9.513 -21.249,21.248 0,11.735 9.513,21.248 21.249,21.248 11.735,0 21.248,-9.513 21.248,-21.248" style="fill:#ffffff;fill-opacity:1;fill-rule:nonzero;stroke:none" id="path10760" inkscape:connector-curvature="0"></path><path d="m 440.266,356.714 c 0,-11.735 -9.513,-21.248 -21.248,-21.248 -11.736,0 -21.248,9.513 -21.248,21.248 0,11.735 9.512,21.248 21.248,21.248 11.735,0 21.248,-9.513 21.248,-21.248" style="fill:#ffffff;fill-opacity:1;fill-rule:nonzero;stroke:none" id="path10762" inkscape:connector-curvature="0"></path><path d="m 461.514,377.962 c 0,-11.734 -9.513,-21.248 -21.248,-21.248 -11.735,0 -21.248,9.514 -21.248,21.248 0,11.735 9.513,21.248 21.248,21.248 11.735,0 21.248,-9.513 21.248,-21.248" style="fill:#ffffff;fill-opacity:1;fill-rule:nonzero;stroke:none" id="path10764" inkscape:connector-curvature="0"></path><path d="M 130.106,82.477 H 42.611 c -12.425,0 -22.499,10.073 -22.499,22.499 0,12.425 10.074,22.499 22.499,22.499 h 87.495 c 12.426,0 22.499,-10.074 22.499,-22.499 0,-12.426 -10.073,-22.499 -22.499,-22.499" style="fill:#ffffff;fill-opacity:1;fill-rule:nonzero;stroke:none" id="path10766" inkscape:connector-curvature="0"></path><path d="m 70.566,111.681 c 0,-16.129 -13.075,-29.204 -29.203,-29.204 -16.129,0 -29.204,13.075 -29.204,29.204 0,16.129 13.075,29.203 29.204,29.203 16.128,0 29.203,-13.074 29.203,-29.203" style="fill:#ffffff;fill-opacity:1;fill-rule:nonzero;stroke:none" id="path10768" inkscape:connector-curvature="0"></path><path d="m 114.675,127.475 c 0,-10.857 -8.801,-19.658 -19.657,-19.658 -10.856,0 -19.657,8.801 -19.657,19.658 0,10.856 8.801,19.657 19.657,19.657 10.856,0 19.657,-8.801 19.657,-19.657" style="fill:#ffffff;fill-opacity:1;fill-rule:nonzero;stroke:none" id="path10770" inkscape:connector-curvature="0"></path><path d="m 153.417,105.976 c 0,-13.41 -10.87,-24.281 -24.28,-24.281 -13.409,0 -24.28,10.871 -24.28,24.281 0,13.409 10.871,24.28 24.28,24.28 13.41,0 24.28,-10.871 24.28,-24.28" style="fill:#ffffff;fill-opacity:1;fill-rule:nonzero;stroke:none" id="path10772" inkscape:connector-curvature="0"></path><path d="m 92.607,140.884 c 0,-12.011 -9.737,-21.748 -21.748,-21.748 -12.011,0 -21.748,9.737 -21.748,21.748 0,12.012 9.737,21.748 21.748,21.748 12.011,0 21.748,-9.736 21.748,-21.748" style="fill:#ffffff;fill-opacity:1;fill-rule:nonzero;stroke:none" id="path10774" inkscape:connector-curvature="0"></path><path d="m 457.677,82.477 h -87.495 c -12.426,0 -22.498,10.073 -22.498,22.499 0,12.425 10.072,22.499 22.498,22.499 h 87.495 c 12.426,0 22.499,-10.074 22.499,-22.499 0,-12.426 -10.073,-22.499 -22.499,-22.499" style="fill:#ffffff;fill-opacity:1;fill-rule:nonzero;stroke:none" id="path10776" inkscape:connector-curvature="0"></path><path d="m 398.137,111.681 c 0,-16.129 -13.075,-29.204 -29.203,-29.204 -16.129,0 -29.205,13.075 -29.205,29.204 0,16.129 13.076,29.203 29.205,29.203 16.128,0 29.203,-13.074 29.203,-29.203" style="fill:#ffffff;fill-opacity:1;fill-rule:nonzero;stroke:none" id="path10778" inkscape:connector-curvature="0"></path><path d="m 453.139,132.922 c 0,-13.865 -11.24,-25.105 -25.104,-25.105 -13.864,0 -25.103,11.24 -25.103,25.105 0,13.864 11.239,25.103 25.103,25.103 13.864,0 25.104,-11.239 25.104,-25.103" style="fill:#ffffff;fill-opacity:1;fill-rule:nonzero;stroke:none" id="path10780" inkscape:connector-curvature="0"></path><path d="m 487.841,111.771 c 0,-16.61 -13.465,-30.076 -30.075,-30.076 -16.61,0 -30.076,13.466 -30.076,30.076 0,16.61 13.466,30.075 30.076,30.075 16.61,0 30.075,-13.465 30.075,-30.075" style="fill:#ffffff;fill-opacity:1;fill-rule:nonzero;stroke:none" id="path10782" inkscape:connector-curvature="0"></path><path d="m 408.359,140.884 c 0,-12.011 -9.737,-21.748 -21.749,-21.748 -12.01,0 -21.748,9.737 -21.748,21.748 0,12.012 9.738,21.748 21.748,21.748 12.012,0 21.749,-9.736 21.749,-21.748" style="fill:#ffffff;fill-opacity:1;fill-rule:nonzero;stroke:none" id="path10784" inkscape:connector-curvature="0"></path><path d="m 291.106,82.477 h -87.495 c -12.425,0 -22.499,10.073 -22.499,22.499 0,12.425 10.074,22.499 22.499,22.499 h 87.495 c 12.426,0 22.499,-10.074 22.499,-22.499 0,-12.426 -10.073,-22.499 -22.499,-22.499" style="fill:#ffffff;fill-opacity:1;fill-rule:nonzero;stroke:none" id="path10786" inkscape:connector-curvature="0"></path><path d="m 256.018,131.724 c 0,-14.773 -11.976,-26.748 -26.748,-26.748 -14.773,0 -26.749,11.975 -26.749,26.748 0,14.773 11.976,26.749 26.749,26.749 14.772,0 26.748,-11.976 26.748,-26.749" style="fill:#ffffff;fill-opacity:1;fill-rule:nonzero;stroke:none" id="path10788" inkscape:connector-curvature="0"></path><path d="m 294.766,121.724 c 0,-15.877 -12.871,-28.748 -28.748,-28.748 -15.877,0 -28.748,12.871 -28.748,28.748 0,15.878 12.871,28.749 28.748,28.749 15.877,0 28.748,-12.871 28.748,-28.749" style="fill:#ffffff;fill-opacity:1;fill-rule:nonzero;stroke:none" id="path10790" inkscape:connector-curvature="0"></path><path d="m 238.7,79.228 c 0,14.772 11.976,26.748 26.748,26.748 14.773,0 26.748,-11.976 26.748,-26.748 0,-14.773 -11.975,-26.749 -26.748,-26.749 -14.772,0 -26.748,11.976 -26.748,26.749" style="fill:#ffffff;fill-opacity:1;fill-rule:nonzero;stroke:none" id="path10792" inkscape:connector-curvature="0"></path><path d="m 199.952,89.228 c 0,15.876 12.871,28.748 28.748,28.748 15.877,0 28.748,-12.872 28.748,-28.748 0,-15.877 -12.871,-28.749 -28.748,-28.749 -15.877,0 -28.748,12.872 -28.748,28.749" style="fill:#ffffff;fill-opacity:1;fill-rule:nonzero;stroke:none" id="path10794" inkscape:connector-curvature="0"></path><path d="m 407.859,266.454 c 0,-11.735 -9.513,-21.248 -21.249,-21.248 -11.734,0 -21.248,9.513 -21.248,21.248 0,11.735 9.514,21.248 21.248,21.248 11.736,0 21.249,-9.513 21.249,-21.248" style="fill:#ffffff;fill-opacity:1;fill-rule:nonzero;stroke:none" id="path10796" inkscape:connector-curvature="0"></path><path d="m 429.107,275.702 c 0,-11.735 -9.513,-21.248 -21.248,-21.248 -11.735,0 -21.249,9.513 -21.249,21.248 0,11.736 9.514,21.248 21.249,21.248 11.735,0 21.248,-9.512 21.248,-21.248" style="fill:#ffffff;fill-opacity:1;fill-rule:nonzero;stroke:none" id="path10798" inkscape:connector-curvature="0"></path><path d="m 461.514,260.579 c 0,-11.735 -9.513,-21.249 -21.248,-21.249 -11.735,0 -21.248,9.514 -21.248,21.249 0,11.734 9.513,21.248 21.248,21.248 11.735,0 21.248,-9.514 21.248,-21.248" style="fill:#ffffff;fill-opacity:1;fill-rule:nonzero;stroke:none" id="path10800" inkscape:connector-curvature="0"></path><path d="m 454.106,220.08 h -87.495 c -12.425,0 -22.499,10.073 -22.499,22.499 0,12.426 10.074,22.499 22.499,22.499 h 87.495 c 12.426,0 22.499,-10.073 22.499,-22.499 0,-12.426 -10.073,-22.499 -22.499,-22.499" style="fill:#ffffff;fill-opacity:1;fill-rule:nonzero;stroke:none" id="path10802" inkscape:connector-curvature="0"></path><path d="M 127.606,367.463 H 40.111 c -12.425,0 -22.499,10.074 -22.499,22.499 0,12.426 10.074,22.499 22.499,22.499 h 87.495 c 12.426,0 22.499,-10.073 22.499,-22.499 0,-12.425 -10.073,-22.499 -22.499,-22.499" style="fill:#ffffff;fill-opacity:1;fill-rule:nonzero;stroke:none" id="path10804" inkscape:connector-curvature="0"></path><path d="m 70.859,405.024 c 0,-11.735 -9.513,-21.248 -21.248,-21.248 -11.736,0 -21.248,9.513 -21.248,21.248 0,11.735 9.512,21.248 21.248,21.248 11.735,0 21.248,-9.513 21.248,-21.248" style="fill:#ffffff;fill-opacity:1;fill-rule:nonzero;stroke:none" id="path10806" inkscape:connector-curvature="0"></path><path d="m 92.107,414.272 c 0,-11.734 -9.513,-21.248 -21.248,-21.248 -11.735,0 -21.248,9.514 -21.248,21.248 0,11.735 9.513,21.249 21.248,21.249 11.735,0 21.248,-9.514 21.248,-21.249" style="fill:#ffffff;fill-opacity:1;fill-rule:nonzero;stroke:none" id="path10808" inkscape:connector-curvature="0"></path><path d="m 124.514,426.272 c 0,-11.734 -9.513,-21.248 -21.248,-21.248 -11.735,0 -21.248,9.514 -21.248,21.248 0,11.735 9.513,21.249 21.248,21.249 11.735,0 21.248,-9.514 21.248,-21.249" style="fill:#ffffff;fill-opacity:1;fill-rule:nonzero;stroke:none" id="path10810" inkscape:connector-curvature="0"></path><path d="m 137.514,412.461 c 0,-11.735 -9.513,-21.248 -21.248,-21.248 -11.735,0 -21.248,9.513 -21.248,21.248 0,11.735 9.513,21.248 21.248,21.248 11.735,0 21.248,-9.513 21.248,-21.248" style="fill:#ffffff;fill-opacity:1;fill-rule:nonzero;stroke:none" id="path10812" inkscape:connector-curvature="0"></path><path d="m 83.859,266.454 c 0,-11.735 -9.513,-21.248 -21.248,-21.248 -11.736,0 -21.248,9.513 -21.248,21.248 0,11.735 9.512,21.248 21.248,21.248 11.735,0 21.248,-9.513 21.248,-21.248" style="fill:#ffffff;fill-opacity:1;fill-rule:nonzero;stroke:none" id="path10814" inkscape:connector-curvature="0"></path><path d="m 83.859,220.08 c 0,-11.734 -9.513,-21.248 -21.248,-21.248 -11.736,0 -21.248,9.514 -21.248,21.248 0,11.735 9.512,21.248 21.248,21.248 11.735,0 21.248,-9.513 21.248,-21.248" style="fill:#ffffff;fill-opacity:1;fill-rule:nonzero;stroke:none" id="path10816" inkscape:connector-curvature="0"></path><path d="m 107.607,206.332 c 0,-11.735 -9.513,-21.248 -21.248,-21.248 -11.735,0 -21.248,9.513 -21.248,21.248 0,11.734 9.513,21.248 21.248,21.248 11.735,0 21.248,-9.514 21.248,-21.248" style="fill:#ffffff;fill-opacity:1;fill-rule:nonzero;stroke:none" id="path10818" inkscape:connector-curvature="0"></path><path d="m 128.855,223.958 c 0,-11.735 -9.513,-21.248 -21.248,-21.248 -11.735,0 -21.248,9.513 -21.248,21.248 0,11.734 9.513,21.248 21.248,21.248 11.735,0 21.248,-9.514 21.248,-21.248" style="fill:#ffffff;fill-opacity:1;fill-rule:nonzero;stroke:none" id="path10820" inkscape:connector-curvature="0"></path><path d="m 105.107,275.702 c 0,-11.735 -9.513,-21.248 -21.248,-21.248 -11.735,0 -21.248,9.513 -21.248,21.248 0,11.736 9.513,21.248 21.248,21.248 11.735,0 21.248,-9.512 21.248,-21.248" style="fill:#ffffff;fill-opacity:1;fill-rule:nonzero;stroke:none" id="path10822" inkscape:connector-curvature="0"></path><path d="m 137.514,260.579 c 0,-11.735 -9.513,-21.249 -21.248,-21.249 -11.735,0 -21.248,9.514 -21.248,21.249 0,11.734 9.513,21.248 21.248,21.248 11.735,0 21.248,-9.514 21.248,-21.248" style="fill:#ffffff;fill-opacity:1;fill-rule:nonzero;stroke:none" id="path10824" inkscape:connector-curvature="0"></path><path d="M 130.106,220.08 H 42.611 c -12.425,0 -22.499,10.073 -22.499,22.499 0,12.426 10.074,22.499 22.499,22.499 h 87.495 c 12.426,0 22.499,-10.073 22.499,-22.499 0,-12.426 -10.073,-22.499 -22.499,-22.499" style="fill:#ffffff;fill-opacity:1;fill-rule:nonzero;stroke:none" id="path10826" inkscape:connector-curvature="0"></path><path d="m 291.106,220.08 h -87.495 c -12.425,0 -22.499,10.073 -22.499,22.499 0,12.426 10.074,22.499 22.499,22.499 h 87.495 c 12.426,0 22.499,-10.073 22.499,-22.499 0,-12.426 -10.073,-22.499 -22.499,-22.499" style="fill:#ffffff;fill-opacity:1;fill-rule:nonzero;stroke:none" id="path10828" inkscape:connector-curvature="0"></path><path d="m 281.607,264.328 c 0,-20.295 -16.453,-36.748 -36.748,-36.748 -20.295,0 -36.748,16.453 -36.748,36.748 0,20.296 16.453,36.748 36.748,36.748 20.295,0 36.748,-16.452 36.748,-36.748" style="fill:#ffffff;fill-opacity:1;fill-rule:nonzero;stroke:none" id="path10830" inkscape:connector-curvature="0"></path></g></g></g></svg>